<mxfile host="app.diagrams.net" agent="Mozilla/5.0 (Windows NT 10.0; Win64; x64) AppleWebKit/537.36 (KHTML, like Gecko) Chrome/134.0.0.0 Safari/537.36" version="26.1.3">
  <diagram name="Página-1" id="YJnIRCckUdHJqJ2IX_1O">
    <mxGraphModel dx="765" dy="386" grid="1" gridSize="10" guides="1" tooltips="1" connect="1" arrows="1" fold="1" page="1" pageScale="1" pageWidth="827" pageHeight="1169" math="0" shadow="0">
      <root>
        <mxCell id="0" />
        <mxCell id="1" parent="0" />
        <mxCell id="WcZDP8BiPnLe88TMV5Pi-33" value="&lt;span style=&quot;font-weight: normal;&quot;&gt;Funcionário&lt;/span&gt;" style="swimlane;fontStyle=1;align=center;verticalAlign=top;childLayout=stackLayout;horizontal=1;startSize=26;horizontalStack=0;resizeParent=1;resizeParentMax=0;resizeLast=0;collapsible=1;marginBottom=0;whiteSpace=wrap;html=1;" vertex="1" parent="1">
          <mxGeometry x="280" y="390" width="170" height="250" as="geometry" />
        </mxCell>
        <mxCell id="WcZDP8BiPnLe88TMV5Pi-34" value="&lt;p style=&quot;margin: 0px 0px 0px 4px;&quot;&gt;+ int ID&lt;/p&gt;&lt;p style=&quot;margin: 0px 0px 0px 4px;&quot;&gt;+ String Nome&lt;/p&gt;&lt;p style=&quot;margin: 0px 0px 0px 4px;&quot;&gt;+ String CPF&lt;/p&gt;&lt;p style=&quot;margin: 0px 0px 0px 4px;&quot;&gt;+ String Email&lt;/p&gt;&lt;p style=&quot;margin: 0px 0px 0px 4px;&quot;&gt;+ String Telefone&lt;/p&gt;&lt;p style=&quot;margin: 0px 0px 0px 4px;&quot;&gt;+ String CEP&lt;/p&gt;&lt;p style=&quot;margin: 0px 0px 0px 4px;&quot;&gt;+ String Cargo&lt;/p&gt;&lt;p style=&quot;margin: 0px 0px 0px 4px;&quot;&gt;+ Float Salário&lt;/p&gt;&lt;p style=&quot;margin: 0px 0px 0px 4px;&quot;&gt;+ Date dataAdmissão&lt;/p&gt;" style="text;strokeColor=none;fillColor=none;align=left;verticalAlign=top;spacingLeft=4;spacingRight=4;overflow=hidden;rotatable=0;points=[[0,0.5],[1,0.5]];portConstraint=eastwest;whiteSpace=wrap;html=1;" vertex="1" parent="WcZDP8BiPnLe88TMV5Pi-33">
          <mxGeometry y="26" width="170" height="144" as="geometry" />
        </mxCell>
        <mxCell id="WcZDP8BiPnLe88TMV5Pi-35" value="" style="line;strokeWidth=1;fillColor=none;align=left;verticalAlign=middle;spacingTop=-1;spacingLeft=3;spacingRight=3;rotatable=0;labelPosition=right;points=[];portConstraint=eastwest;strokeColor=inherit;" vertex="1" parent="WcZDP8BiPnLe88TMV5Pi-33">
          <mxGeometry y="170" width="170" height="8" as="geometry" />
        </mxCell>
        <mxCell id="WcZDP8BiPnLe88TMV5Pi-36" value="&lt;p style=&quot;margin: 0px 0px 0px 4px;&quot;&gt;+ fazerLogin()&lt;br&gt;&lt;/p&gt;&lt;p style=&quot;margin: 0px 0px 0px 4px;&quot;&gt;+ cadastrarCliente()&lt;/p&gt;&lt;p style=&quot;margin: 0px 0px 0px 4px;&quot;&gt;+ reservarQuarto&lt;/p&gt;&lt;p style=&quot;margin: 0px 0px 0px 4px;&quot;&gt;+ gerarRelatorio()&lt;/p&gt;" style="text;strokeColor=none;fillColor=none;align=left;verticalAlign=top;spacingLeft=4;spacingRight=4;overflow=hidden;rotatable=0;points=[[0,0.5],[1,0.5]];portConstraint=eastwest;whiteSpace=wrap;html=1;" vertex="1" parent="WcZDP8BiPnLe88TMV5Pi-33">
          <mxGeometry y="178" width="170" height="72" as="geometry" />
        </mxCell>
        <mxCell id="WcZDP8BiPnLe88TMV5Pi-38" value="&lt;span style=&quot;font-weight: normal;&quot;&gt;Cliente&lt;/span&gt;" style="swimlane;fontStyle=1;align=center;verticalAlign=top;childLayout=stackLayout;horizontal=1;startSize=26;horizontalStack=0;resizeParent=1;resizeParentMax=0;resizeLast=0;collapsible=1;marginBottom=0;whiteSpace=wrap;html=1;" vertex="1" parent="1">
          <mxGeometry x="280" y="31" width="170" height="190" as="geometry" />
        </mxCell>
        <mxCell id="WcZDP8BiPnLe88TMV5Pi-39" value="&lt;p style=&quot;margin: 0px 0px 0px 4px;&quot;&gt;+ int ID&lt;/p&gt;&lt;p style=&quot;margin: 0px 0px 0px 4px;&quot;&gt;+ String Nome&lt;/p&gt;&lt;p style=&quot;margin: 0px 0px 0px 4px;&quot;&gt;+ String CPF&lt;/p&gt;&lt;p style=&quot;margin: 0px 0px 0px 4px;&quot;&gt;+ String Email&lt;/p&gt;&lt;p style=&quot;margin: 0px 0px 0px 4px;&quot;&gt;+ String Telefone&lt;/p&gt;&lt;p style=&quot;margin: 0px 0px 0px 4px;&quot;&gt;+ String CEP&lt;/p&gt;&lt;p style=&quot;margin: 0px 0px 0px 4px;&quot;&gt;+ Date dataCadastro&lt;/p&gt;" style="text;strokeColor=none;fillColor=none;align=left;verticalAlign=top;spacingLeft=4;spacingRight=4;overflow=hidden;rotatable=0;points=[[0,0.5],[1,0.5]];portConstraint=eastwest;whiteSpace=wrap;html=1;" vertex="1" parent="WcZDP8BiPnLe88TMV5Pi-38">
          <mxGeometry y="26" width="170" height="114" as="geometry" />
        </mxCell>
        <mxCell id="WcZDP8BiPnLe88TMV5Pi-73" value="" style="edgeStyle=elbowEdgeStyle;html=1;endArrow=none;elbow=vertical;rounded=0;exitX=1.001;exitY=0.555;exitDx=0;exitDy=0;exitPerimeter=0;" edge="1" parent="WcZDP8BiPnLe88TMV5Pi-38" source="WcZDP8BiPnLe88TMV5Pi-39">
          <mxGeometry width="160" relative="1" as="geometry">
            <mxPoint x="160" y="83" as="sourcePoint" />
            <mxPoint x="360" y="209" as="targetPoint" />
            <Array as="points">
              <mxPoint x="280" y="89" />
            </Array>
          </mxGeometry>
        </mxCell>
        <mxCell id="WcZDP8BiPnLe88TMV5Pi-40" value="" style="line;strokeWidth=1;fillColor=none;align=left;verticalAlign=middle;spacingTop=-1;spacingLeft=3;spacingRight=3;rotatable=0;labelPosition=right;points=[];portConstraint=eastwest;strokeColor=inherit;" vertex="1" parent="WcZDP8BiPnLe88TMV5Pi-38">
          <mxGeometry y="140" width="170" height="8" as="geometry" />
        </mxCell>
        <mxCell id="WcZDP8BiPnLe88TMV5Pi-41" value="&lt;p style=&quot;margin: 0px 0px 0px 4px;&quot;&gt;+ fazerLogin()&lt;br&gt;&lt;/p&gt;&lt;p style=&quot;margin: 0px 0px 0px 4px;&quot;&gt;+ consultarReserva()&lt;/p&gt;" style="text;strokeColor=none;fillColor=none;align=left;verticalAlign=top;spacingLeft=4;spacingRight=4;overflow=hidden;rotatable=0;points=[[0,0.5],[1,0.5]];portConstraint=eastwest;whiteSpace=wrap;html=1;" vertex="1" parent="WcZDP8BiPnLe88TMV5Pi-38">
          <mxGeometry y="148" width="170" height="42" as="geometry" />
        </mxCell>
        <mxCell id="WcZDP8BiPnLe88TMV5Pi-42" value="&lt;span style=&quot;font-weight: normal;&quot;&gt;Pessoa (abstrata)&lt;/span&gt;" style="swimlane;fontStyle=1;align=center;verticalAlign=top;childLayout=stackLayout;horizontal=1;startSize=26;horizontalStack=0;resizeParent=1;resizeParentMax=0;resizeLast=0;collapsible=1;marginBottom=0;whiteSpace=wrap;html=1;" vertex="1" parent="1">
          <mxGeometry x="40" y="200" width="150" height="190" as="geometry" />
        </mxCell>
        <mxCell id="WcZDP8BiPnLe88TMV5Pi-43" value="&lt;p style=&quot;margin: 0px 0px 0px 4px;&quot;&gt;+ int ID&lt;/p&gt;&lt;p style=&quot;margin: 0px 0px 0px 4px;&quot;&gt;+ String Nome&lt;/p&gt;&lt;p style=&quot;margin: 0px 0px 0px 4px;&quot;&gt;+ String CPF&lt;/p&gt;&lt;p style=&quot;margin: 0px 0px 0px 4px;&quot;&gt;+ String Email&lt;/p&gt;&lt;p style=&quot;margin: 0px 0px 0px 4px;&quot;&gt;+ String Telefone&lt;/p&gt;&lt;p style=&quot;margin: 0px 0px 0px 4px;&quot;&gt;+ String CEP&lt;/p&gt;" style="text;strokeColor=none;fillColor=none;align=left;verticalAlign=top;spacingLeft=4;spacingRight=4;overflow=hidden;rotatable=0;points=[[0,0.5],[1,0.5]];portConstraint=eastwest;whiteSpace=wrap;html=1;" vertex="1" parent="WcZDP8BiPnLe88TMV5Pi-42">
          <mxGeometry y="26" width="150" height="104" as="geometry" />
        </mxCell>
        <mxCell id="WcZDP8BiPnLe88TMV5Pi-44" value="" style="line;strokeWidth=1;fillColor=none;align=left;verticalAlign=middle;spacingTop=-1;spacingLeft=3;spacingRight=3;rotatable=0;labelPosition=right;points=[];portConstraint=eastwest;strokeColor=inherit;" vertex="1" parent="WcZDP8BiPnLe88TMV5Pi-42">
          <mxGeometry y="130" width="150" height="8" as="geometry" />
        </mxCell>
        <mxCell id="WcZDP8BiPnLe88TMV5Pi-45" value="&lt;p style=&quot;margin: 0px 0px 0px 4px;&quot;&gt;+ fazerLogin()&lt;br&gt;&lt;/p&gt;&lt;p style=&quot;margin: 0px 0px 0px 4px;&quot;&gt;+ consultarReserva()&lt;/p&gt;" style="text;strokeColor=none;fillColor=none;align=left;verticalAlign=top;spacingLeft=4;spacingRight=4;overflow=hidden;rotatable=0;points=[[0,0.5],[1,0.5]];portConstraint=eastwest;whiteSpace=wrap;html=1;" vertex="1" parent="WcZDP8BiPnLe88TMV5Pi-42">
          <mxGeometry y="138" width="150" height="52" as="geometry" />
        </mxCell>
        <mxCell id="WcZDP8BiPnLe88TMV5Pi-46" value="&lt;span style=&quot;font-weight: normal;&quot;&gt;Reserva&lt;/span&gt;" style="swimlane;fontStyle=1;align=center;verticalAlign=top;childLayout=stackLayout;horizontal=1;startSize=26;horizontalStack=0;resizeParent=1;resizeParentMax=0;resizeLast=0;collapsible=1;marginBottom=0;whiteSpace=wrap;html=1;" vertex="1" parent="1">
          <mxGeometry x="580" y="242" width="170" height="200" as="geometry" />
        </mxCell>
        <mxCell id="WcZDP8BiPnLe88TMV5Pi-47" value="&lt;p style=&quot;margin: 0px 0px 0px 4px;&quot;&gt;+ int ID&lt;/p&gt;&lt;p style=&quot;margin: 0px 0px 0px 4px;&quot;&gt;+ Date dataEntrada&lt;/p&gt;&lt;p style=&quot;margin: 0px 0px 0px 4px;&quot;&gt;+ Data dataSaida&lt;/p&gt;&lt;p style=&quot;margin: 0px 0px 0px 4px;&quot;&gt;+ int numeroHospedes&lt;/p&gt;&lt;p style=&quot;margin: 0px 0px 0px 4px;&quot;&gt;+ Float precoTotal&lt;/p&gt;&lt;p style=&quot;margin: 0px 0px 0px 4px;&quot;&gt;+ String status&lt;/p&gt;" style="text;strokeColor=none;fillColor=none;align=left;verticalAlign=top;spacingLeft=4;spacingRight=4;overflow=hidden;rotatable=0;points=[[0,0.5],[1,0.5]];portConstraint=eastwest;whiteSpace=wrap;html=1;" vertex="1" parent="WcZDP8BiPnLe88TMV5Pi-46">
          <mxGeometry y="26" width="170" height="104" as="geometry" />
        </mxCell>
        <mxCell id="WcZDP8BiPnLe88TMV5Pi-48" value="" style="line;strokeWidth=1;fillColor=none;align=left;verticalAlign=middle;spacingTop=-1;spacingLeft=3;spacingRight=3;rotatable=0;labelPosition=right;points=[];portConstraint=eastwest;strokeColor=inherit;" vertex="1" parent="WcZDP8BiPnLe88TMV5Pi-46">
          <mxGeometry y="130" width="170" height="8" as="geometry" />
        </mxCell>
        <mxCell id="WcZDP8BiPnLe88TMV5Pi-49" value="&lt;p style=&quot;margin: 0px 0px 0px 4px;&quot;&gt;+ calcularPrecoTotal()&lt;br&gt;&lt;/p&gt;&lt;p style=&quot;margin: 0px 0px 0px 4px;&quot;&gt;+ cancelar()&lt;/p&gt;&lt;p style=&quot;margin: 0px 0px 0px 4px;&quot;&gt;+ confirmar()&lt;/p&gt;" style="text;strokeColor=none;fillColor=none;align=left;verticalAlign=top;spacingLeft=4;spacingRight=4;overflow=hidden;rotatable=0;points=[[0,0.5],[1,0.5]];portConstraint=eastwest;whiteSpace=wrap;html=1;" vertex="1" parent="WcZDP8BiPnLe88TMV5Pi-46">
          <mxGeometry y="138" width="170" height="62" as="geometry" />
        </mxCell>
        <mxCell id="WcZDP8BiPnLe88TMV5Pi-50" value="&lt;span style=&quot;font-weight: normal;&quot;&gt;Quarto&lt;/span&gt;" style="swimlane;fontStyle=1;align=center;verticalAlign=top;childLayout=stackLayout;horizontal=1;startSize=26;horizontalStack=0;resizeParent=1;resizeParentMax=0;resizeLast=0;collapsible=1;marginBottom=0;whiteSpace=wrap;html=1;" vertex="1" parent="1">
          <mxGeometry x="960" y="130" width="170" height="180" as="geometry" />
        </mxCell>
        <mxCell id="WcZDP8BiPnLe88TMV5Pi-51" value="&lt;p style=&quot;margin: 0px 0px 0px 4px;&quot;&gt;+ int numero&lt;/p&gt;&lt;p style=&quot;margin: 0px 0px 0px 4px;&quot;&gt;+ String Tipo&lt;/p&gt;&lt;p style=&quot;margin: 0px 0px 0px 4px;&quot;&gt;+ int Capacidade&lt;/p&gt;&lt;p style=&quot;margin: 0px 0px 0px 4px;&quot;&gt;+ float precoDiaria&lt;/p&gt;&lt;p style=&quot;margin: 0px 0px 0px 4px;&quot;&gt;+ Boolean disponibilidade&lt;/p&gt;&lt;p style=&quot;margin: 0px 0px 0px 4px;&quot;&gt;+ String comodidades&lt;/p&gt;" style="text;strokeColor=none;fillColor=none;align=left;verticalAlign=top;spacingLeft=4;spacingRight=4;overflow=hidden;rotatable=0;points=[[0,0.5],[1,0.5]];portConstraint=eastwest;whiteSpace=wrap;html=1;" vertex="1" parent="WcZDP8BiPnLe88TMV5Pi-50">
          <mxGeometry y="26" width="170" height="104" as="geometry" />
        </mxCell>
        <mxCell id="WcZDP8BiPnLe88TMV5Pi-52" value="" style="line;strokeWidth=1;fillColor=none;align=left;verticalAlign=middle;spacingTop=-1;spacingLeft=3;spacingRight=3;rotatable=0;labelPosition=right;points=[];portConstraint=eastwest;strokeColor=inherit;" vertex="1" parent="WcZDP8BiPnLe88TMV5Pi-50">
          <mxGeometry y="130" width="170" height="8" as="geometry" />
        </mxCell>
        <mxCell id="WcZDP8BiPnLe88TMV5Pi-53" value="&lt;p style=&quot;margin: 0px 0px 0px 4px;&quot;&gt;+ reservar()&lt;br&gt;&lt;/p&gt;&lt;p style=&quot;margin: 0px 0px 0px 4px;&quot;&gt;+ liberar()&lt;br&gt;&lt;/p&gt;" style="text;strokeColor=none;fillColor=none;align=left;verticalAlign=top;spacingLeft=4;spacingRight=4;overflow=hidden;rotatable=0;points=[[0,0.5],[1,0.5]];portConstraint=eastwest;whiteSpace=wrap;html=1;" vertex="1" parent="WcZDP8BiPnLe88TMV5Pi-50">
          <mxGeometry y="138" width="170" height="42" as="geometry" />
        </mxCell>
        <mxCell id="WcZDP8BiPnLe88TMV5Pi-54" value="&lt;span style=&quot;font-weight: normal;&quot;&gt;Pagamento&lt;/span&gt;" style="swimlane;fontStyle=1;align=center;verticalAlign=top;childLayout=stackLayout;horizontal=1;startSize=26;horizontalStack=0;resizeParent=1;resizeParentMax=0;resizeLast=0;collapsible=1;marginBottom=0;whiteSpace=wrap;html=1;" vertex="1" parent="1">
          <mxGeometry x="960" y="360" width="170" height="170" as="geometry" />
        </mxCell>
        <mxCell id="WcZDP8BiPnLe88TMV5Pi-55" value="&lt;p style=&quot;margin: 0px 0px 0px 4px;&quot;&gt;+ int ID&lt;/p&gt;&lt;p style=&quot;margin: 0px 0px 0px 4px;&quot;&gt;+ date DataPagamento&lt;/p&gt;&lt;p style=&quot;margin: 0px 0px 0px 4px;&quot;&gt;+ float valorPagp&lt;/p&gt;&lt;p style=&quot;margin: 0px 0px 0px 4px;&quot;&gt;+ String metodoPagamento&lt;/p&gt;&lt;p style=&quot;margin: 0px 0px 0px 4px;&quot;&gt;+ String status&lt;/p&gt;" style="text;strokeColor=none;fillColor=none;align=left;verticalAlign=top;spacingLeft=4;spacingRight=4;overflow=hidden;rotatable=0;points=[[0,0.5],[1,0.5]];portConstraint=eastwest;whiteSpace=wrap;html=1;" vertex="1" parent="WcZDP8BiPnLe88TMV5Pi-54">
          <mxGeometry y="26" width="170" height="94" as="geometry" />
        </mxCell>
        <mxCell id="WcZDP8BiPnLe88TMV5Pi-56" value="" style="line;strokeWidth=1;fillColor=none;align=left;verticalAlign=middle;spacingTop=-1;spacingLeft=3;spacingRight=3;rotatable=0;labelPosition=right;points=[];portConstraint=eastwest;strokeColor=inherit;" vertex="1" parent="WcZDP8BiPnLe88TMV5Pi-54">
          <mxGeometry y="120" width="170" height="8" as="geometry" />
        </mxCell>
        <mxCell id="WcZDP8BiPnLe88TMV5Pi-57" value="&lt;p style=&quot;margin: 0px 0px 0px 4px;&quot;&gt;+ processarPagamento()&lt;/p&gt;&lt;p style=&quot;margin: 0px 0px 0px 4px;&quot;&gt;+ confirmarPagamento()&lt;/p&gt;" style="text;strokeColor=none;fillColor=none;align=left;verticalAlign=top;spacingLeft=4;spacingRight=4;overflow=hidden;rotatable=0;points=[[0,0.5],[1,0.5]];portConstraint=eastwest;whiteSpace=wrap;html=1;" vertex="1" parent="WcZDP8BiPnLe88TMV5Pi-54">
          <mxGeometry y="128" width="170" height="42" as="geometry" />
        </mxCell>
        <mxCell id="WcZDP8BiPnLe88TMV5Pi-71" value="" style="edgeStyle=none;html=1;endSize=12;endArrow=block;endFill=0;rounded=0;entryX=0.003;entryY=0.56;entryDx=0;entryDy=0;entryPerimeter=0;" edge="1" parent="1" target="WcZDP8BiPnLe88TMV5Pi-39">
          <mxGeometry width="160" relative="1" as="geometry">
            <mxPoint x="120" y="200" as="sourcePoint" />
            <mxPoint x="260" y="120" as="targetPoint" />
            <Array as="points">
              <mxPoint x="120" y="200" />
              <mxPoint x="120" y="120" />
              <mxPoint x="150" y="120" />
              <mxPoint x="190" y="120" />
            </Array>
          </mxGeometry>
        </mxCell>
        <mxCell id="WcZDP8BiPnLe88TMV5Pi-74" value="" style="edgeStyle=elbowEdgeStyle;html=1;endArrow=none;elbow=vertical;rounded=0;entryX=0.352;entryY=0.993;entryDx=0;entryDy=0;entryPerimeter=0;" edge="1" parent="1" target="WcZDP8BiPnLe88TMV5Pi-49">
          <mxGeometry width="160" relative="1" as="geometry">
            <mxPoint x="450" y="600" as="sourcePoint" />
            <mxPoint x="640" y="600" as="targetPoint" />
            <Array as="points">
              <mxPoint x="570" y="600" />
            </Array>
          </mxGeometry>
        </mxCell>
        <mxCell id="WcZDP8BiPnLe88TMV5Pi-75" value="1" style="endArrow=open;html=1;endSize=12;startArrow=diamondThin;startSize=14;startFill=1;edgeStyle=orthogonalEdgeStyle;align=left;verticalAlign=bottom;rounded=0;exitX=1;exitY=0.645;exitDx=0;exitDy=0;exitPerimeter=0;entryX=0;entryY=0.362;entryDx=0;entryDy=0;entryPerimeter=0;" edge="1" parent="1" source="WcZDP8BiPnLe88TMV5Pi-49" target="WcZDP8BiPnLe88TMV5Pi-55">
          <mxGeometry x="-1" y="3" relative="1" as="geometry">
            <mxPoint x="780" y="420" as="sourcePoint" />
            <mxPoint x="940" y="420" as="targetPoint" />
            <Array as="points" />
          </mxGeometry>
        </mxCell>
        <mxCell id="WcZDP8BiPnLe88TMV5Pi-76" value="" style="endArrow=none;html=1;edgeStyle=orthogonalEdgeStyle;rounded=0;exitX=1.004;exitY=0.21;exitDx=0;exitDy=0;exitPerimeter=0;" edge="1" parent="1" source="WcZDP8BiPnLe88TMV5Pi-47">
          <mxGeometry relative="1" as="geometry">
            <mxPoint x="780" y="290" as="sourcePoint" />
            <mxPoint x="958" y="290" as="targetPoint" />
          </mxGeometry>
        </mxCell>
        <mxCell id="WcZDP8BiPnLe88TMV5Pi-79" value="" style="edgeStyle=none;html=1;endSize=12;endArrow=block;endFill=0;rounded=0;" edge="1" parent="1">
          <mxGeometry width="160" relative="1" as="geometry">
            <mxPoint x="120" y="480" as="sourcePoint" />
            <mxPoint x="278" y="480" as="targetPoint" />
            <Array as="points">
              <mxPoint x="120" y="440" />
              <mxPoint x="120" y="390" />
              <mxPoint x="120" y="480" />
              <mxPoint x="170" y="480" />
            </Array>
          </mxGeometry>
        </mxCell>
      </root>
    </mxGraphModel>
  </diagram>
</mxfile>
